<mxfile host="Electron" modified="2024-01-12T16:11:00.483Z" agent="Mozilla/5.0 (Windows NT 10.0; Win64; x64) AppleWebKit/537.36 (KHTML, like Gecko) draw.io/22.1.18 Chrome/120.0.6099.199 Electron/28.1.2 Safari/537.36" etag="HV81beWb6j5wpRdou4At" version="22.1.18" type="device">
  <diagram name="Страница — 1" id="t6v79zgoJijmkGYJj7Zp">
    <mxGraphModel dx="1418" dy="838" grid="1" gridSize="10" guides="1" tooltips="1" connect="1" arrows="1" fold="1" page="1" pageScale="1" pageWidth="827" pageHeight="1169" math="0" shadow="0">
      <root>
        <mxCell id="0" />
        <mxCell id="1" parent="0" />
        <mxCell id="60__TGmpD9WFv2zfF9kq-5" value="" style="edgeStyle=orthogonalEdgeStyle;rounded=0;orthogonalLoop=1;jettySize=auto;html=1;dashed=1;endArrow=open;endFill=0;" parent="1" source="60__TGmpD9WFv2zfF9kq-1" target="60__TGmpD9WFv2zfF9kq-3" edge="1">
          <mxGeometry relative="1" as="geometry" />
        </mxCell>
        <mxCell id="60__TGmpD9WFv2zfF9kq-6" value="&amp;lt;&amp;lt;manifest&amp;gt;&amp;gt;" style="edgeLabel;html=1;align=center;verticalAlign=middle;resizable=0;points=[];" parent="60__TGmpD9WFv2zfF9kq-5" vertex="1" connectable="0">
          <mxGeometry x="0.0667" relative="1" as="geometry">
            <mxPoint x="-4" y="-10" as="offset" />
          </mxGeometry>
        </mxCell>
        <mxCell id="60__TGmpD9WFv2zfF9kq-1" value="PostgreSQL" style="shape=note2;boundedLbl=1;whiteSpace=wrap;html=1;size=25;verticalAlign=top;align=center;" parent="1" vertex="1">
          <mxGeometry x="425" y="275" width="160" height="60" as="geometry" />
        </mxCell>
        <mxCell id="60__TGmpD9WFv2zfF9kq-2" value="&lt;&lt;executable&gt;&gt;" style="resizeWidth=1;part=1;strokeColor=none;fillColor=none;align=left;spacingLeft=5;" parent="60__TGmpD9WFv2zfF9kq-1" vertex="1">
          <mxGeometry width="160" height="25" relative="1" as="geometry" />
        </mxCell>
        <mxCell id="60__TGmpD9WFv2zfF9kq-3" value="PostgreSQL DB" style="html=1;dropTarget=0;whiteSpace=wrap;" parent="1" vertex="1">
          <mxGeometry x="170" y="275" width="140" height="60" as="geometry" />
        </mxCell>
        <mxCell id="60__TGmpD9WFv2zfF9kq-4" value="" style="shape=module;jettyWidth=8;jettyHeight=4;" parent="60__TGmpD9WFv2zfF9kq-3" vertex="1">
          <mxGeometry x="1" width="20" height="20" relative="1" as="geometry">
            <mxPoint x="-27" y="7" as="offset" />
          </mxGeometry>
        </mxCell>
        <mxCell id="60__TGmpD9WFv2zfF9kq-13" value="" style="edgeStyle=orthogonalEdgeStyle;rounded=0;orthogonalLoop=1;jettySize=auto;html=1;endArrow=none;endFill=0;" parent="1" source="60__TGmpD9WFv2zfF9kq-9" target="60__TGmpD9WFv2zfF9kq-12" edge="1">
          <mxGeometry relative="1" as="geometry" />
        </mxCell>
        <mxCell id="60__TGmpD9WFv2zfF9kq-9" value="PostgreSQL&lt;br&gt;server" style="verticalAlign=top;align=center;shape=cube;size=10;direction=south;html=1;boundedLbl=1;spacingLeft=5;whiteSpace=wrap;" parent="1" vertex="1">
          <mxGeometry x="450" y="392" width="100" height="53" as="geometry" />
        </mxCell>
        <mxCell id="60__TGmpD9WFv2zfF9kq-10" value="" style="edgeStyle=orthogonalEdgeStyle;rounded=0;orthogonalLoop=1;jettySize=auto;html=1;dashed=1;endArrow=open;endFill=0;exitX=0.5;exitY=1;exitDx=0;exitDy=0;exitPerimeter=0;entryX=0;entryY=0;entryDx=0;entryDy=45;entryPerimeter=0;" parent="1" source="60__TGmpD9WFv2zfF9kq-1" target="60__TGmpD9WFv2zfF9kq-9" edge="1">
          <mxGeometry relative="1" as="geometry">
            <mxPoint x="595" y="315" as="sourcePoint" />
            <mxPoint x="715" y="315" as="targetPoint" />
          </mxGeometry>
        </mxCell>
        <mxCell id="60__TGmpD9WFv2zfF9kq-11" value="&amp;lt;&amp;lt;deploy&amp;gt;&amp;gt;" style="edgeLabel;html=1;align=center;verticalAlign=middle;resizable=0;points=[];" parent="60__TGmpD9WFv2zfF9kq-10" vertex="1" connectable="0">
          <mxGeometry x="0.0667" relative="1" as="geometry">
            <mxPoint x="30" as="offset" />
          </mxGeometry>
        </mxCell>
        <mxCell id="60__TGmpD9WFv2zfF9kq-12" value="&amp;lt;&amp;lt;execution environment&amp;gt;&amp;gt;&lt;br&gt;Python virtual environment" style="verticalAlign=top;align=center;shape=cube;size=10;direction=south;html=1;boundedLbl=1;spacingLeft=5;whiteSpace=wrap;" parent="1" vertex="1">
          <mxGeometry x="404" y="460" width="200" height="130" as="geometry" />
        </mxCell>
        <mxCell id="60__TGmpD9WFv2zfF9kq-14" value="Server" style="shape=note2;boundedLbl=1;whiteSpace=wrap;html=1;size=25;verticalAlign=top;align=center;" parent="1" vertex="1">
          <mxGeometry x="420" y="510" width="160" height="60" as="geometry" />
        </mxCell>
        <mxCell id="60__TGmpD9WFv2zfF9kq-15" value="&lt;&lt;executable&gt;&gt;" style="resizeWidth=1;part=1;strokeColor=none;fillColor=none;align=left;spacingLeft=5;" parent="60__TGmpD9WFv2zfF9kq-14" vertex="1">
          <mxGeometry width="160" height="25" relative="1" as="geometry" />
        </mxCell>
        <mxCell id="60__TGmpD9WFv2zfF9kq-16" value="Porphiriy" style="html=1;dropTarget=0;whiteSpace=wrap;" parent="1" vertex="1">
          <mxGeometry x="170" y="510" width="140" height="60" as="geometry" />
        </mxCell>
        <mxCell id="60__TGmpD9WFv2zfF9kq-17" value="" style="shape=module;jettyWidth=8;jettyHeight=4;" parent="60__TGmpD9WFv2zfF9kq-16" vertex="1">
          <mxGeometry x="1" width="20" height="20" relative="1" as="geometry">
            <mxPoint x="-27" y="7" as="offset" />
          </mxGeometry>
        </mxCell>
        <mxCell id="60__TGmpD9WFv2zfF9kq-18" value="" style="edgeStyle=orthogonalEdgeStyle;rounded=0;orthogonalLoop=1;jettySize=auto;html=1;dashed=1;endArrow=open;endFill=0;exitX=0;exitY=0.5;exitDx=0;exitDy=0;exitPerimeter=0;entryX=1;entryY=0.5;entryDx=0;entryDy=0;" parent="1" source="60__TGmpD9WFv2zfF9kq-14" target="60__TGmpD9WFv2zfF9kq-16" edge="1">
          <mxGeometry relative="1" as="geometry">
            <mxPoint x="60" y="290" as="sourcePoint" />
            <mxPoint x="180" y="290" as="targetPoint" />
          </mxGeometry>
        </mxCell>
        <mxCell id="60__TGmpD9WFv2zfF9kq-19" value="&amp;lt;&amp;lt;manifest&amp;gt;&amp;gt;" style="edgeLabel;html=1;align=center;verticalAlign=middle;resizable=0;points=[];" parent="60__TGmpD9WFv2zfF9kq-18" vertex="1" connectable="0">
          <mxGeometry x="0.0667" relative="1" as="geometry">
            <mxPoint x="-4" y="-10" as="offset" />
          </mxGeometry>
        </mxCell>
        <mxCell id="60__TGmpD9WFv2zfF9kq-20" value="Workstation" style="verticalAlign=top;align=center;shape=cube;size=10;direction=south;html=1;boundedLbl=1;spacingLeft=5;whiteSpace=wrap;" parent="1" vertex="1">
          <mxGeometry x="394" y="612" width="200" height="120" as="geometry" />
        </mxCell>
        <mxCell id="60__TGmpD9WFv2zfF9kq-21" value="Chromium/Firefox" style="shape=note2;boundedLbl=1;whiteSpace=wrap;html=1;size=25;verticalAlign=top;align=center;" parent="1" vertex="1">
          <mxGeometry x="415" y="662" width="160" height="60" as="geometry" />
        </mxCell>
        <mxCell id="60__TGmpD9WFv2zfF9kq-22" value="&lt;&lt;executable&gt;&gt;" style="resizeWidth=1;part=1;strokeColor=none;fillColor=none;align=left;spacingLeft=5;" parent="60__TGmpD9WFv2zfF9kq-21" vertex="1">
          <mxGeometry width="160" height="25" relative="1" as="geometry" />
        </mxCell>
        <mxCell id="60__TGmpD9WFv2zfF9kq-24" value="Web-browser" style="html=1;dropTarget=0;whiteSpace=wrap;" parent="1" vertex="1">
          <mxGeometry x="170" y="662" width="140" height="60" as="geometry" />
        </mxCell>
        <mxCell id="60__TGmpD9WFv2zfF9kq-25" value="" style="shape=module;jettyWidth=8;jettyHeight=4;" parent="60__TGmpD9WFv2zfF9kq-24" vertex="1">
          <mxGeometry x="1" width="20" height="20" relative="1" as="geometry">
            <mxPoint x="-27" y="7" as="offset" />
          </mxGeometry>
        </mxCell>
        <mxCell id="60__TGmpD9WFv2zfF9kq-26" value="" style="edgeStyle=orthogonalEdgeStyle;rounded=0;orthogonalLoop=1;jettySize=auto;html=1;dashed=1;endArrow=open;endFill=0;exitX=0;exitY=0.5;exitDx=0;exitDy=0;exitPerimeter=0;entryX=1;entryY=0.5;entryDx=0;entryDy=0;" parent="1" source="60__TGmpD9WFv2zfF9kq-21" target="60__TGmpD9WFv2zfF9kq-24" edge="1">
          <mxGeometry relative="1" as="geometry">
            <mxPoint x="50" y="565" as="sourcePoint" />
            <mxPoint x="180" y="565" as="targetPoint" />
          </mxGeometry>
        </mxCell>
        <mxCell id="60__TGmpD9WFv2zfF9kq-27" value="&amp;lt;&amp;lt;manifest&amp;gt;&amp;gt;" style="edgeLabel;html=1;align=center;verticalAlign=middle;resizable=0;points=[];" parent="60__TGmpD9WFv2zfF9kq-26" vertex="1" connectable="0">
          <mxGeometry x="0.0667" relative="1" as="geometry">
            <mxPoint x="-4" y="-10" as="offset" />
          </mxGeometry>
        </mxCell>
        <mxCell id="tnAb_E3JdATIHkJUH1OB-2" value="" style="edgeStyle=orthogonalEdgeStyle;rounded=0;orthogonalLoop=1;jettySize=auto;html=1;endArrow=none;endFill=0;entryX=0;entryY=0;entryDx=0;entryDy=95;entryPerimeter=0;exitX=0;exitY=0;exitDx=130;exitDy=105;exitPerimeter=0;" edge="1" parent="1" source="60__TGmpD9WFv2zfF9kq-12" target="60__TGmpD9WFv2zfF9kq-20">
          <mxGeometry relative="1" as="geometry">
            <mxPoint x="510" y="455" as="sourcePoint" />
            <mxPoint x="510" y="470" as="targetPoint" />
          </mxGeometry>
        </mxCell>
      </root>
    </mxGraphModel>
  </diagram>
</mxfile>
